<svg fill="currentColor" height="24" width="24" version="1.1" id="Layer_1" xmlns="http://www.w3.org/2000/svg"
     viewBox="-32 -32 576 576">
    <path fill="currentColor" d="M356.174,78.997v-28.91C356.174,21.762,332.546,0,306.087,0H103.652c-44.88,0-81.391,36.511-81.391,81.391v402.783
			c0,9.223,7.479,16.696,16.696,16.696s16.696-7.473,16.696-16.696V81.391c0-26.467,21.533-48,48-48h155.424
			C257.205,38.639,256,44.205,256,50.087v28.91c-75.065,8.663-133.565,72.524-133.565,149.872v32.696
			c0,9.223,7.479,16.696,16.696,16.696h333.913c9.217,0,16.696-7.473,16.696-16.696V228.87
			C489.739,151.521,431.239,87.659,356.174,78.997z M456.348,244.87H155.826c0-17.248-0.326-21.612,1.432-33.391h297.657
			C456.674,223.255,456.348,227.617,456.348,244.87z"/>
    <path fill="currentColor" d="M205.913,311.652c-9.217,0-16.696,7.473-16.696,16.696v33.391c0,9.223,7.479,16.696,16.696,16.696
			c9.217,0,16.696-7.473,16.696-16.696v-33.391C222.609,319.125,215.13,311.652,205.913,311.652z"/>
    <path fill="currentColor" d="M139.13,311.652c-9.217,0-16.696,7.473-16.696,16.696v66.783c0,9.223,7.479,16.696,16.696,16.696
			s16.696-7.473,16.696-16.696v-66.783C155.826,319.125,148.348,311.652,139.13,311.652z"/>
    <path fill="currentColor" d="M272.696,311.652c-9.217,0-16.696,7.473-16.696,16.696v66.783c0,9.223,7.479,16.696,16.696,16.696
			c9.217,0,16.696-7.473,16.696-16.696v-66.783C289.391,319.125,281.913,311.652,272.696,311.652z"/>
    <path fill="currentColor" d="M339.478,311.652c-9.217,0-16.696,7.473-16.696,16.696v33.391c0,9.223,7.479,16.696,16.696,16.696
			s16.696-7.473,16.696-16.696v-33.391C356.174,319.125,348.695,311.652,339.478,311.652z"/>
    <path fill="currentColor" d="M406.261,311.652c-9.217,0-16.696,7.473-16.696,16.696v66.783c0,9.223,7.479,16.696,16.696,16.696
			s16.696-7.473,16.696-16.696v-66.783C422.957,319.125,415.478,311.652,406.261,311.652z"/>
    <path fill="currentColor" d="M473.043,311.652c-9.217,0-16.696,7.473-16.696,16.696v33.391c0,9.223,7.479,16.696,16.696,16.696
			c9.217,0,16.696-7.473,16.696-16.696v-33.391C489.739,319.125,482.261,311.652,473.043,311.652z"/>
    <path fill="currentColor" d="M205.913,411.826c-9.217,0-16.696,7.473-16.696,16.696v66.783c0,9.223,7.479,16.696,16.696,16.696
			c9.217,0,16.696-7.473,16.696-16.696v-66.783C222.609,419.299,215.13,411.826,205.913,411.826z"/>
    <path fill="currentColor" d="M139.13,445.217c-9.217,0-16.696,7.473-16.696,16.696v33.391c0,9.223,7.479,16.696,16.696,16.696
			s16.696-7.473,16.696-16.696v-33.391C155.826,452.69,148.348,445.217,139.13,445.217z"/>
    <path fill="currentColor" d="M272.696,445.217c-9.217,0-16.696,7.473-16.696,16.696v33.391c0,9.223,7.479,16.696,16.696,16.696
			c9.217,0,16.696-7.473,16.696-16.696v-33.391C289.391,452.69,281.913,445.217,272.696,445.217z"/>
    <path fill="currentColor" d="M339.478,411.826c-9.217,0-16.696,7.473-16.696,16.696v66.783c0,9.223,7.479,16.696,16.696,16.696
			s16.696-7.473,16.696-16.696v-66.783C356.174,419.299,348.695,411.826,339.478,411.826z"/>
    <path fill="currentColor" d="M406.261,445.217c-9.217,0-16.696,7.473-16.696,16.696v33.391c0,9.223,7.479,16.696,16.696,16.696
			s16.696-7.473,16.696-16.696v-33.391C422.957,452.69,415.478,445.217,406.261,445.217z"/>
    <path fill="currentColor" d="M473.043,411.826c-9.217,0-16.696,7.473-16.696,16.696v66.783c0,9.223,7.479,16.696,16.696,16.696
			c9.217,0,16.696-7.473,16.696-16.696v-66.783C489.739,419.299,482.261,411.826,473.043,411.826z"/>
</svg>